<svg width="1172" height="171" viewBox="0 0 1172 171" fill="none" xmlns="http://www.w3.org/2000/svg">
<path fill-rule="evenodd" clip-rule="evenodd" d="M170.1 85.0447L85.1001 170.045L0.100098 85.0447H42.6001L127.6 85.0447H170.1Z" fill="white"/>
<path d="M0.100098 85.0447L0.100098 0.0447235L42.6001 85.0447H0.100098Z" fill="#F0F0F0"/>
<path fill-rule="evenodd" clip-rule="evenodd" d="M170.1 85.0447H127.6L170.1 0.0447235L170.1 85.0447Z" fill="#F0F0F0"/>
<path d="M170.1 85.0447L85.1001 170.045L0.100098 85.0447M170.1 85.0447H127.6M170.1 85.0447L170.1 0.0447235L127.6 85.0447M0.100098 85.0447H42.6001M0.100098 85.0447L0.100098 0.0447235L42.6001 85.0447M42.6001 85.0447L127.6 85.0447" stroke="black" stroke-opacity="0.08" stroke-width="0.2"/>
<path d="M255.1 35.0447H279.162L281.821 97.2057L297.144 35.0447H320.826L336.149 97.2057L339.189 35.0447H362.997L358.438 130.638H328.804L309.175 71.2735L289.293 130.638H259.532L255.1 35.0447Z" fill="white"/>
<path d="M458.211 81.8244C458.211 89.96 458.211 98.0956 458.211 106.358C458.211 112.968 455.298 119.07 450.866 123.519C446.307 127.968 440.228 130.638 433.01 130.638C413.127 130.638 415.787 130.638 400.717 130.638C393.751 130.638 387.546 127.968 382.86 123.519C373.236 113.985 373.236 97.3329 382.86 87.6718C387.546 83.3498 393.751 80.6803 400.717 80.6803C419.459 80.6803 414.9 80.6803 434.023 80.6803C433.136 76.8668 429.59 73.943 425.411 73.943H387.799V51.443H425.411C442.761 51.443 457.198 64.9176 458.211 81.8244ZM402.489 110.299C416.8 110.299 409.961 110.299 429.21 110.299C432.376 110.299 435.036 107.884 435.036 104.579V98.8583C418.066 98.8583 417.813 98.8583 402.489 98.8583C394.764 98.8583 394.764 110.299 402.489 110.299Z" fill="white"/>
<path d="M475.964 35.0447H499.899V130.638H475.964V35.0447Z" fill="white"/>
<path d="M583.079 125.68H604.734V137.121C604.734 155.299 590.044 170.045 571.935 170.045H534.196V146.019H571.935C576.747 146.019 580.926 142.079 580.926 137.121V126.697C554.965 138.392 517.48 125.553 517.48 88.5617V51.5701H541.541V88.5617C541.541 113.477 580.926 113.477 580.926 88.5617V51.5701H604.734V88.5617C604.734 106.867 595.49 119.452 583.079 125.68Z" fill="white"/>
<path d="M691.213 130.638H667.278V85.3837C667.278 71.782 646.256 71.782 646.256 85.3837V130.638H622.321V85.3837C622.321 51.8244 659.68 43.1803 679.309 59.0701C698.938 43.1803 736.044 51.8244 736.044 85.3837V130.638H712.362V85.3837C712.362 71.782 691.213 71.782 691.213 85.3837V130.638Z" fill="white"/>
<path d="M833.909 81.8244C833.909 89.96 833.909 98.0956 833.909 106.358C833.909 112.968 830.996 119.07 826.564 123.519C822.005 127.968 815.926 130.638 808.708 130.638C788.826 130.638 791.485 130.638 776.415 130.638C769.45 130.638 763.244 127.968 758.559 123.519C748.934 113.985 748.934 97.3329 758.559 87.6718C763.244 83.3498 769.45 80.6803 776.415 80.6803C795.157 80.6803 790.598 80.6803 809.721 80.6803C808.835 76.8668 805.289 73.943 801.11 73.943H763.498V51.443H801.11C818.459 51.443 832.896 64.9176 833.909 81.8244ZM778.188 110.299C792.498 110.299 785.659 110.299 804.909 110.299C808.075 110.299 810.734 107.884 810.734 104.579V98.8583C793.764 98.8583 793.511 98.8583 778.188 98.8583C770.463 98.8583 770.463 110.299 778.188 110.299Z" fill="white"/>
<path d="M885.095 51.3159H912.829V75.0871H885.095C879.903 75.0871 875.47 79.5362 875.47 84.621V130.638H851.789V84.621C851.789 66.1888 866.732 51.3159 885.095 51.3159Z" fill="white"/>
<path d="M928.801 35.0447H952.61V82.3329H960.968C966.54 82.3329 968.313 81.1888 970.086 75.9769L976.798 51.5701H1001.62L991.488 84.8752C990.475 88.1803 986.042 94.4091 981.483 94.282C986.042 95.4261 990.475 100.511 991.488 103.816L999.593 130.638H974.518L969.453 112.714C967.553 107.121 966.287 106.231 960.588 106.231H952.61V130.638H928.801V35.0447Z" fill="white"/>
<path d="M1098.14 86.0193L1071.17 100.892H1043.31C1047.49 110.045 1060.66 110.045 1068.13 103.943L1094.6 106.613C1085.99 124.79 1065.6 134.324 1046.22 129.621C1024.57 124.536 1010.89 103.18 1016.46 81.443C1022.16 58.8159 1045.21 45.7227 1067.5 50.9346C1084.09 55.0024 1096.62 68.7312 1098.14 86.0193ZM1039.64 86.6549L1073.83 86.5278C1072.06 80.0447 1066.86 74.8329 1060.41 73.3074C1050.91 71.0193 1041.28 77.121 1039.64 86.6549Z" fill="white"/>
<path d="M1171.1 105.596V130.129C1145.01 134.96 1114.11 122.502 1114.11 91.7396V35.0447H1137.92V56.0193H1168.06V79.9176H1137.92V91.7396C1137.92 106.104 1157.68 110.172 1171.1 105.596Z" fill="white"/>
</svg>
